<!-- Generator: Adobe Illustrator 18.0.0, SVG Export Plug-In  -->
<svg version="1.1"
	 xmlns="http://www.w3.org/2000/svg" xmlns:xlink="http://www.w3.org/1999/xlink" xmlns:a="http://ns.adobe.com/AdobeSVGViewerExtensions/3.0/"
	 xml:space="preserve">
<defs>
</defs>
<path d="M92.6,34.9C51.3,72.1,24.2,118.8,2.9,169.6c0.5-3.2,0.9-6.5,1.7-9.7c0.8-3.2,1.6-6.5,2.8-9.6
	c11.1-27.7,26.6-53,44.4-76.7C60.4,62,70.1,51.3,79.2,40.1C65.5,51.8,53.6,65.3,43.4,80.2C33.3,95,24.1,110.3,14.3,125.7
	c1-3.2,1.9-6.4,3-9.5c1.1-3.1,2.4-6.2,3.9-9.2c9-19,22.4-35,36.2-50.7c8.5-9.7,17.7-18.7,26.5-28.2C60,46.9,41.2,70.1,24.3,95.6
	c0.3-11.3,8.2-21.7,47.7-64.8c-3.9,3.5-8,6.8-11.8,10.4c-3.8,3.7-7.5,7.6-11.1,11.5c-3.7,4-7.2,8.2-11.2,11.9
	c7.9-17.5,22.4-29,38.3-40.3c-2.7-0.3-4.3-0.5-6-0.7c0-0.3,0-0.7,0-1c4.7-0.4,9.5-1.2,14.2-1.3c29.3-0.2,58.7-0.5,88-0.4
	c7.9,0,15.7,1.5,20.4,9.3c0.6,1,2.9,1.4,4.4,1.4c10.5,0.3,21,0.3,31.5,0.5c5,0.1,10,0.2,14.9,0.8c2,0.2,4.9,1.4,5.5,2.9
	c2.6,6.2,7.7,5.5,12.5,5.1c14.8-1.1,29.6-2,44.2-4.1c23.5-3.4,47.1-7.2,70.4-11.7c36.8-7.1,73.3-15.3,110.1-22.5
	c23.2-4.5,46.5-2.9,69.6,0.7c32.5,5.1,65.1,7.5,98,8.6c29.1,1,58.2,3.8,87.2,5.5c8.3,0.5,16.6-0.1,25-0.1
	c12.6,0.1,25.3,0.2,37.9,0.5c2.6,0.1,5.2,1,7.7,1.8c14.2,5,18.1,20.6,7.8,31.7c-7.8,8.4-18.2,12-29,13.2c-21.2,2.3-42.4,3.8-63.7,5
	c-13.8,0.8-27.6,0.3-41.4,0.9c-9.3,0.4-18.5,1.9-27.8,2.5c-13.3,0.9-26.5,1.6-39.8,2.3c-5.1,0.2-10.3-0.2-15.5,0.1
	c-1.7,0.1-3.3,1.8-5,2.7c1,1.6,1.8,3.4,3.1,4.7c6.7,6.7,14.4,12.5,20.2,19.9c6.1,7.8,11.5,16.5,15.2,25.6c8.8,21.6,1,39.7-20.1,49.4
	c-5.4,2.5-11.2,4.2-16.9,6c-2.4,0.8-3.5,1.5-3.4,4.4c0.6,20-7.1,35.2-25.7,44.1c-1.1,0.5-2.4,2-2.6,3.2c-4.5,25.3-25.1,39.1-51.5,38
	c-13.6-0.6-27.2-2.3-40.8-3.8c-7.4-0.8-14.1-4.1-18.6-9.8c-11.6-14.6-26.3-17.9-44.5-18.1c-23.3-0.2-46.7-4.4-69.9-7.6
	c-12.3-1.7-24.6-4.4-36.7-7.2c-12.8-3-24.3-9.1-34.2-17.9c-4.3-3.9-8.9-7.6-15.3-7.4c-6.7,0.2-8,1.7-7.7,8.3
	c0.4,7.8,1.2,15.6,1,23.4c-0.2,9.4-1.7,10.8-11.1,11.2c-18.1,0.8-36.3,1.5-54.4,2c-3.9,0.1-5.8,1.3-5.9,5.3
	c-0.3,8.6-0.5,17.3-1.4,25.9c-1,8.8-4.2,12.4-13.1,12.9c-23.9,1.6-47.9,2.9-71.8,3.6c-14.9,0.4-29.9-0.6-45.5-1
	c14.4-100.3,45.6-192,121.1-263.6c-4.2,3.7-8.6,7.1-12.5,11C122.4,72.5,98.2,109.4,80,150.2C60,194.8,48.4,241.6,41.8,289.8
	c-0.1,1-0.3,1.9-0.5,2.9c-0.4,0.1-0.9,0.2-1.3,0.3c-0.5-2.5-1.6-5-1.3-7.4c1.2-9.9,2.6-19.8,4.4-29.6c5.4-29.3,13.2-58.1,23.9-85.9
	c19.5-51,47.2-96.8,87.1-134.8c0.5-0.5,1-1.1,0.9-2.4c-2.8,2.4-5.8,4.7-8.4,7.2C114.2,71.3,90,108.1,71.7,149
	c-19.4,43.3-30.6,88.9-37.1,135.8c-0.3,2-0.7,3.9-1,5.9c-0.6,0.1-1.1,0.1-1.7,0.2c-0.5-3.4-1.7-6.9-1.3-10.2c1.7-12,3.7-24,6.1-35.9
	c10.9-52.9,29.3-103,58.7-148.6c13.3-20.7,28.6-39.7,46.1-57c1.1-1.1,2.1-2.3,2.6-4.1c-1.3,1.1-2.8,2.1-4,3.2
	c-29.8,27.3-51.9,60.1-69.6,96.2c-22.2,45.4-35.4,93.5-43.9,143.1c-0.4,2.5-0.8,4.9-1.3,7.4c-0.4,0-0.9,0-1.3,0
	c0-5.9-0.8-11.9,0.1-17.7c4.5-29.3,12-58,21.8-86c18.1-51.9,44.3-99,83.2-138.4c3-3.1,6-6.2,8.8-9.8c-1.3,1-2.7,2-3.9,3.1
	c-27.9,24.3-48.8,54.1-66.3,86.4c-25.9,47.8-40.6,99.3-49,152.8c-0.3,1.8-0.6,3.5-1,5.3c-0.5,0-1,0-1.6,0c0-6.1-0.9-12.3,0.2-18.1
	c6.1-33.1,14.8-65.5,27.1-97c18.3-47,44-89.2,79.7-125c3.6-3.6,7.4-7.1,10.5-11.4c-3.1,2.6-6.2,5.1-9.2,7.8
	c-35,32.4-60.9,71.2-79.6,115C28.3,190.5,17.9,231,10.8,272.4c-0.1,0.5-0.2,0.9-0.7,2.7c-2.5-10-1.7-18.8,0.2-27.5
	c6-27.1,13.4-53.9,23.4-79.8C52,120.6,77.6,78.1,113.1,41.9c3.8-3.8,7.3-7.9,10.9-12c-2.6,2.2-5.3,4.3-7.8,6.6
	c-37.1,34.6-63.8,76.1-82.9,122.8C21,189.6,12.2,221,5.6,253c-0.2,0.9-0.6,1.7-1.3,2.5c-0.5-13.9,1.6-27.5,5.4-40.8
	C25.2,160.8,47.1,110,83,66.2c10.5-12.8,22.3-24.7,33.5-37c-3.1,2.5-6.4,5-9.4,7.8c-22.1,20.6-40.6,44.1-56,70
	c-22,37.1-37.1,76.9-48.3,118.4c-0.4,1.4-0.8,2.8-1.2,4.2c-0.5-0.1-1-0.2-1.6-0.3c1.9-9.8,2.9-19.8,5.8-29.3
	C24.7,138.2,54,82.4,101,37c2.2-2.1,4.3-4.2,6.5-6.2c0.1-0.1,0-0.2-0.2-1.7C54.3,76.2,21.8,134.8,1.1,200.9
	c-0.3-10.5,2.4-20.3,6-29.9c12.2-32.6,27.7-63.5,48.7-91.3c10.9-14.4,23.5-27.6,35.4-41.3c0.8-0.9,1.7-1.8,2.5-2.7
	C93.3,35.4,93,35.1,92.6,34.9z M430.2,186.9L430.2,186.9c0.7,0.5,1.4,1,1.9,1.4c1.1-4.4,2.2-8.5,3.3-12.7c0.5,0.1,1,0.2,1.5,0.3
	c0,3.7,0,7.5,0,11.7c5.7-6.6,1.9-13.1,1.3-18c-2.4-2-4.1-3.4-6.3-5.2c-1,2.1-2.5,4.4-3.4,6.9c-0.9,2.4-1.5,5-2.4,8.3
	c-3.3-7.3,1.3-12.1,3.6-17.8c-5.6,2.9-8.9,12-6.1,16.5C425.5,181.4,428,184,430.2,186.9z M561,35.3c3.7-1.9,7.4-3.7,11.1-5.6
	c0.2,0.4,0.5,0.8,0.7,1.2c-3.3,3.3-6.5,6.6-9.8,10c2.8-1.7,5.3-3.7,8.1-5.5c2.8-1.7,5.7-3.1,8.6-4.6c-15.5,15.4-30.4,30.9-42,49.3
	c3-2.3,5.3-5.1,7.8-7.9c9.9-11.4,19.6-23.1,30-34.1c3.9-4.1,9.6-6.6,14.5-9.8c0.3,0.4,0.6,0.9,0.9,1.3c-4.2,3.9-8.3,7.8-12.5,11.7
	c0.2,0.1,0.3,0.3,0.5,0.4c6.2-4.1,12.4-8.3,18.7-12.4c0.3,0.4,0.6,0.8,0.9,1.3c-18.3,16.3-35,33.8-47.7,54.9
	c2.1-1.2,3.8-2.8,5.2-4.6c11.1-13.3,21.8-26.9,33.3-39.8c3.9-4.3,9.6-6.9,14.6-10.2c0.8-0.5,1.8-0.5,3.7-1c-4.2,4-7.7,7.2-11.1,10.4
	c4-2.1,7.2-5.1,10.9-7.6c3.7-2.5,7.7-4.4,11.6-6.6c-21.9,20.2-41.6,41.7-56.7,67.3c2-1.1,3.7-2.4,4.9-4.2
	c12-18.1,25.4-35.1,41.1-50.1c4.3-4.1,9.7-7.1,14.5-10.7c0.3,0.4,0.6,0.8,0.9,1.2c-19.9,20.1-39.9,40.1-54,64.9
	c2.4-1.6,4.4-3.5,6.1-5.7c4.7-6.1,9.1-12.5,13.9-18.6c7-8.7,13.8-17.6,21.6-25.5c5.4-5.5,12.4-9.6,18.8-14.4
	c-4.4,5-8.5,9.8-12.7,14.4c-4.4,4.8-9.1,9.3-13.3,14.2c-4,4.6-7.7,9.5-11.6,14.3c0.5,0.5,1,1,1.6,1.5c13.9-15,23.7-34.3,44.1-42.7
	c-11.8,12.6-23.5,25-35.1,37.3c0.6,0.6,1.2,1.3,1.8,1.9c13.2-13.2,22.2-31,40.8-38c-10.9,11.4-22.8,21.8-31.5,35.3
	c13.8-11,21.7-28.5,39.8-35.3c-11.2,12-22,23.5-32.8,35.1c0.4,0.4,0.8,0.8,1.2,1.1c2.3-2.2,4.8-4.2,6.9-6.5
	c5.4-6.1,10.6-12.4,16.1-18.4c4.5-4.9,9.7-8.8,17.7-11.1c-12.1,11.8-23.3,22.4-32,35.2c14-10.4,21-28.6,39.1-34.6
	c-10.9,11.8-21.7,23.4-32.5,35c0.5,0.5,1,0.9,1.5,1.4c4.1-4.4,8.3-8.8,12.4-13.3c4.3-4.7,8-9.9,12.7-14.1c4.3-3.9,9.4-6.7,14.2-10.1
	c0.3,0.4,0.6,0.8,0.9,1.2c-5.9,5.9-11.9,11.6-17.5,17.7c-5.6,6-10.8,12.3-16.1,18.4c0.4,0.4,0.9,0.8,1.3,1.2
	C660.3,59,668.7,41,687.4,34.4c-3.3,3.8-7,7.1-10.5,10.7c-3.4,3.4-6.5,7.1-9.8,10.7c0.5,0.4,0.9,0.8,1.4,1.3
	c4.5-4.9,8.9-9.9,13.5-14.7c6.5-6.7,11.5-9.6,16-9.7c-8.8,9-17.8,18.2-26.8,27.3c0.4,0.4,0.8,0.9,1.3,1.3
	c12.7-10.3,20.3-26.8,38.1-32.2c-9.6,10.8-21.8,18-28,30.7c5.5-5.3,10.4-11.2,15.6-16.7c7.1-7.5,13.5-11.4,18.3-11.9
	c-10.4,10.8-21.3,22-32.1,33.2c0.4,0.4,0.8,0.8,1.2,1.2c13.8-10.3,20.8-28.5,38.9-33.7C714.3,42,703.4,51.7,695,63.8
	c12.8-10,20.8-25.7,37.5-31.9c-10.6,11.1-20.9,21.8-31.1,32.5c0.5,0.5,0.9,0.9,1.4,1.4c3.9-4.1,7.9-8.3,11.8-12.4
	c3.9-4.1,7.4-8.6,11.7-12.3c4.1-3.6,8.9-6.4,13.4-9.6c0.3,0.4,0.5,0.7,0.8,1.1c-9.8,10.2-19.5,20.4-29.3,30.5
	c0.4,0.4,0.9,0.8,1.3,1.3c12.2-10,19.5-25.8,36.5-31.8c-10.5,10.9-20.2,21.1-30,31.3c0.4,0.4,0.7,0.7,1.1,1.1
	c13.3-9.8,20.1-27.3,38.4-32.7c-5.1,5.1-9.5,9.4-13.9,13.8c0.3,0.3,0.7,0.7,1,1c6.3-5.8,12-12.4,21.2-14.1c-3.1,3-6.2,5.9-9.2,8.9
	c-6,6.1-12.1,12.1-18.1,18.2c0.6,0.5,1.1,1.1,1.7,1.6c5.6-6.4,11.3-12.8,16.9-19.2c5.5-4.5,10.6-9.6,18.1-11.1
	c-9.8,9.9-19.4,19.7-29,29.5c0.4,0.4,0.8,0.8,1.2,1.2c12.3-9.4,19.1-25.4,36-30.5c-9.7,9.9-18.9,19.3-28,28.7c0.3,0.3,0.7,0.7,1,1
	c12.1-9.2,18.9-24.9,35.5-29.6c-9.9,10.1-19.3,19.8-28.7,29.4c0.4,0.4,0.8,0.8,1.2,1.2c12-8.7,17.9-24.7,33.5-29
	c0.4,0.4,0.7,0.8,1.1,1.1c-2.5,2.2-4.9,4.4-7.4,6.6c-6.4,6.5-12.8,12.9-19.2,19.4c0.6,0.5,1.2,1.1,1.8,1.6c6-6.8,12-13.6,18-20.4
	c4.2-2.5,8.5-5.1,12.7-7.6c0.2,0.3,0.4,0.7,0.6,1c-8.2,8.5-16.3,17-24.5,25.5c0.4,0.3,0.7,0.7,1.1,1c2.5-2.4,5.2-4.6,7.5-7.1
	c4.8-5.1,9.3-10.5,14.4-15.3c2.4-2.3,5.8-3.3,8.6-5.2c1.5-1,3.6-2.5,3.8-4c0.2-1.6-1-4.2-2.3-5c-3.6-2-7.5-4-11.5-4.4
	c-7.6-0.8-15.3-1.1-22.9-0.5c-14.6,1.1-29.2,2.5-43.9,0.3c-6.7-1-13.5-2-20.3-2.2C693.6,17,671,16.6,648.3,16
	c-7.3-0.2-14.7,0.1-22-0.6c-28.3-3.1-56.6-6.6-84.9-9.7c-24.3-2.7-48.4-2.8-72.3,4c-15.4,4.4-31.2,7.4-47,10.6
	c-26,5.2-52,10-78,14.8c-9.1,1.7-18.3,2.7-27.4,4.6c-5.7,1.2-11.1,3.4-16.6,5.1c-1.1,0.3-2.2,0.4-3.6,0.7c0.5-1.2,0.9-2,1.4-3.2
	c-4,2-7.5,3.7-11,5.4c-0.2-0.3-0.4-0.7-0.6-1c0.5-0.8,1.1-1.6,2-3c-4.2,2-7.7,3.6-11.1,5.3c-0.2-0.4-0.4-0.8-0.5-1.2
	c0.6-0.8,1.2-1.7,2.4-3.3c-4.2,1.8-7.5,3.3-11.9,5.2c1.2-2.3,1.8-3.3,2.5-4.6c-3.4,1.1-6.3,2.1-9.6,3.2c0.5-1.5,0.7-2.1,1-3
	c-3.8,1.6-7,3.1-10.3,4.5c-0.2-0.3-0.3-0.5-0.5-0.8c0.7-1,1.4-2,2-3c-7.5,4-13,9.4-13.8,18.3c-0.2,2.5-1.4,4.9-2.2,7.3
	c-0.5,1.5-1.1,3-1.9,5.4c1.8-1.5,2.8-2.4,3.8-3.2c0.2,0.2,0.5,0.3,0.7,0.5c-2.3,6-4.5,11.9-6.8,17.9c5-5,7.8-11.9,16.4-14.4
	c-6.5,10.6-15.5,18.6-17.5,31.3c6.8-10.4,13.1-20,19.4-29.6c-2.1,17-17.5,27.8-19.1,44.9c7.9-13.7,14.8-28,25.8-39.8
	c-1.3,4.5-2.8,8.9-5.1,12.8c-4.3,7.7-9.5,14.9-13.5,22.7c-3.5,6.6-5.8,13.8-8.7,20.8c0.6,0.3,1.2,0.5,1.7,0.8
	c9.1-18.9,18.5-37.6,31.5-54.3c-0.5,2.7-1.1,5.3-2.3,7.5c-5.2,9.8-10.5,19.6-16,29.4c-6,10.6-11.2,21.5-12.4,33.9
	c11.2-23.8,22.1-47.7,38.1-68.9c0.1,1.8-0.3,3.4-1,4.8c-4.3,8.6-8.8,17.2-13.2,25.8c-6,12-12.3,24-17.7,36.3
	c-2.6,5.8-3.4,12.4-5.1,18.6c4.1-7,7-14.5,10.2-21.8c3.2-7.3,6.4-14.6,10-21.8c3.6-7.3,7.4-14.5,11.5-21.6c3.9-6.7,8.4-13,12.6-19.5
	c0.5,0.3,1,0.6,1.5,0.9c-2.7,5.7-5.2,11.4-8.1,17c-7.9,15.6-16.2,31-23.7,46.7c-4.4,9.1-7.9,18.7-11.2,28.3c-1.3,3.8-1,8.2-1.4,12.3
	c0.5,0.1,1,0.1,1.6,0.2c8.3-25.9,18-51.3,32.5-74.7c-0.1,3.8-0.6,7.5-2,10.8c-2.3,5.5-5,10.9-7.8,16.2
	c-8.3,15.4-10.2,33.4-20.8,47.8c-2.1,2.9-0.1,5.8,3.5,5.4c4.9-0.5,9.8-1.8,14.7-2.8c0.4-0.1,0.8-0.4,1.3-0.7
	c-0.2-1.3-0.4-2.6-0.5-3.9c0.4,0,0.6,0,0.8,0c0.6,0.5,1.3,1,1.9,1.6c17.9,17.5,39.2,28.8,63.7,33.3c14.5,2.7,29.4,3.8,44.1,5.5
	c16,1.8,32.1,3.8,48.1,5.2c3.4,0.3,7.2-1,10.6-2.2c1-0.3,1.4-2.6,2-4c-0.4-0.1-0.7-0.3-1.1-0.4c-1.6,1.4-3.2,2.8-5.7,5.1
	c0.8-4.7,1.5-7.9,1.8-11.2c0.3-3.2,0.1-6.5,0.1-9.7c-4.6,6.1-1.7,15.2-10.4,19.9c1.4-16.7,11.3-30.9,9.3-47.3
	c-0.8,1.1-1.3,2.3-1.7,3.6c-3,10.6-5.7,21.2-8.9,31.7c-1.1,3.6-3.5,6.9-5.3,10.3c-0.7-0.3-1.4-0.7-2.2-1
	c3.6-12.2,7.1-24.5,10.9-36.7c2.8-9.1,3.4-12.8,1.7-18c-0.8,2.2-1.6,4-2.1,5.9c-3.7,12.4-7.1,25-11,37.3c-1.2,3.9-3.6,7.5-5.5,11.2
	c-0.7-0.3-1.5-0.6-2.2-0.9c6.1-20.4,12.2-40.8,18.3-61.2c-5.2,4.4-6.4,6.2-9.3,16.5c-3.4,12-6.7,24-10,36.1
	c-0.9,3.2-1.9,6.5-6.9,6.7c5.5-18.5,10.9-37.1,16.5-56c-4.2,2.8-6.3,6.3-8.7,14.9c-3.1,10.9-5.8,21.9-9.1,32.7c-0.9,2.9-3,5.4-4.5,8
	c-0.8-0.3-1.5-0.7-2.3-1c5.1-17.4,10.2-34.8,15.4-52.2c-0.4-0.2-0.8-0.5-1.2-0.7c-2.1,3.9-4.9,7.6-6.3,11.8
	c-3.6,11.2-6.5,22.7-9.9,34c-0.7,2.3-2.5,4.3-3.8,6.4c-0.7-0.4-1.5-0.7-2.2-1.1c4.5-15.7,9.1-31.4,13.6-47.1
	c-6.3,4.8-8,11.8-9.9,18.6c-2,7.2-3.6,14.5-5.8,21.7c-0.6,2.1-2.7,3.7-4.1,5.5c-0.6-0.4-1.2-0.8-1.8-1.1
	c4.3-14.7,8.7-29.4,13.2-44.8c-5.8,4.4-7.5,10.4-9.3,16.2c-2.2,7.2-3.8,14.5-6.1,21.6c-1.1,3.2-3.3,6.1-4.9,9.1
	c-0.6-0.3-1.1-0.5-1.7-0.8c4.5-15.3,8.9-30.5,13.6-46.3c-6.4,5-8.1,11.8-9.9,18.6c-2,7.4-3.6,14.9-5.9,22.2
	c-0.7,2.4-3.1,4.3-4.6,6.4c-0.5-0.3-1.1-0.7-1.6-1c4.3-14.8,8.6-29.6,12.9-44.4c-0.4-0.2-0.8-0.3-1.1-0.5c-1.1,1.4-2.5,2.7-3.1,4.3
	c-2,5.3-3.9,10.6-5.6,16c-1.9,6-3.2,12.2-5.2,18.2c-0.8,2.2-2.9,4-4.5,5.9c-0.5-0.3-1-0.7-1.5-1c4.3-14.6,8.7-29.2,13-43.7
	c-0.5-0.3-1-0.5-1.5-0.8c-2.1,4.1-4.8,8-6.3,12.3c-2.5,7.2-3.9,14.8-6.3,22.1c-1.2,3.5-3.6,6.5-5.5,9.8c-0.6-0.3-1.2-0.6-1.8-0.9
	c4.5-14.9,9-29.7,13.4-44.6c-0.5-0.2-0.9-0.5-1.4-0.7c-1.9,3.3-4.4,6.4-5.6,9.9c-2.7,7.7-4.5,15.7-7.1,23.4
	c-1.3,3.9-3.6,7.6-5.5,11.3c-0.6-0.3-1.3-0.5-1.9-0.8c4.5-14.8,8.9-29.7,13.6-45c-4.8,1.8-5.9,5.7-7,9.4c-2.6,8.1-4.6,16.3-7.2,24.4
	c-1.1,3.3-3,6.3-4.5,9.5c-0.8-0.3-1.6-0.6-2.4-0.9c4.4-14.5,8.7-29,13.1-43.5c-0.5-0.2-1-0.5-1.4-0.7c-2.2,4.1-4.9,8-6.4,12.3
	c-2.5,7.1-4,14.4-6.2,21.6c-0.8,2.6-2.2,5-3.4,7.5c-1.6-15.8,6.1-28.9,9.8-43.3c-1.7,0.7-3.5,1.4-4.3,2.8c-1.7,3-3.1,6.3-4.1,9.6
	c-2.1,6.8-3.7,13.8-5.9,20.6c-0.9,2.8-2.7,5.3-4,8c-0.6-16.1,7.3-29.7,10.4-44.8c-2.7,2.4-5.2,5.1-6.3,8.2c-2.7,8-4.6,16.3-7.1,24.4
	c-1.1,3.5-2.9,6.7-4.5,10c-0.6-0.2-1.2-0.4-1.9-0.7c1.3-5.6,2.2-11.3,3.9-16.8c2.2-7.3,5.2-14.4,7.4-21.7c0.7-2.2,0.1-4.8,0.1-7.2
	c-8.2,13.2-9.2,29-17.9,41.7c-0.3-2.5-0.4-4.9,0.3-7c2.9-9,6.1-17.9,9.1-26.9c1.3-4,3.1-8.1,0.1-12.6c-5.2,14.8-10.4,29.5-15.6,44.3
	c-1-3.1-1.4-6.2-0.6-8.8c2.9-9.5,6.4-18.9,9.4-28.3c1.3-4.1,1.9-8.3,2.9-12.5c-0.7-0.2-1.4-0.4-2.2-0.6c-5.5,14.9-11,29.9-16.5,44.8
	c-0.6-0.2-1.3-0.3-1.9-0.5c1-5.4,1.4-11,3.1-16.2c2.4-7.3,5.8-14.1,8.5-21.3c1.4-3.7,2-7.7,2.9-11.5c-0.7-0.2-1.5-0.4-2.2-0.6
	c-5.9,15.3-11.7,30.6-17.6,45.9c-0.4-0.2-0.9-0.3-1.3-0.5c-0.8-19.1,11.3-33.9,17.3-51.1c1.1,0.9,1.8,1.4,2.4,1.9
	c18.3,17,39.3,28,64.7,30.1c26.9,2.2,51.4-5,74.4-17.8c11.1-6.1,13.5-18.8,18.1-29.5c-9.9,6.5-9,20.6-20,26.5
	c4.2-9.2,8.4-18.4,12.6-27.5c-11.4,7.8-10.8,23.5-22.7,30.9c5.2-11.2,10.3-22.4,15.5-33.6c-0.5-0.3-1-0.6-1.5-0.9
	c-2.9,4.5-6,8.9-8.6,13.7c-2.7,5-4.6,10.4-7.2,15.3c-1.4,2.7-3.7,4.9-5.5,7.3c-0.5-0.4-1-0.7-1.5-1.1c5.7-12.4,11.5-24.9,17.2-37.3
	c-0.5-0.3-0.9-0.6-1.4-0.8c-2.9,4.6-6.2,9.1-8.7,14c-3,5.9-5.1,12.3-8.2,18.2c-1.8,3.6-4.7,6.6-7.1,9.9c-0.6-0.4-1.1-0.8-1.7-1.1
	c6.9-14.7,13.7-29.4,20.6-44c-0.4-0.3-0.8-0.5-1.1-0.8c-3.1,4.7-6.7,9.2-9.2,14.1c-4.1,8-7.3,16.4-11.3,24.5c-2,4-4.9,7.6-7.4,11.4
	c-0.4-0.2-0.8-0.5-1.2-0.7c1-2.8,1.9-5.6,3.2-8.2c6.7-14.1,13.5-28.2,20.2-42.4c0.6-1.3,0.7-2.9,1.1-4.4c-0.8-0.3-1.6-0.5-2.4-0.8
	c-4.5,9.4-9,18.7-13.5,28.1c-4.5,9.5-8.3,19.4-15.9,27c8.1-20.3,13.8-41.8,30.7-57.7c3.3,2.1,6.3,4,9.7,6.1c1.1-2,2.2-4,3.6-6.6
	c-2.1,0-3.4,0-5,0c0.2-2.5,0.4-4.5,0.4-5.5c9.1,5.6,17.9,11.8,27.4,16.8c7.3,3.8,15.4,6.2,23.3,8.8c13.4,4.4,26.9,8.4,39.2,12.2
	c3.3-4.7,6.3-8.9,9.3-13c0.4,0.3,0.7,0.5,1.1,0.8c-1.7,4.6-3.5,9.2-5.2,13.8c0.5,0.3,1.1,0.5,1.6,0.8c1.6-2.2,3.1-4.6,4.8-6.7
	c1.7-2,3.6-3.8,5.4-5.7c0.2,0.2,0.4,0.4,0.6,0.6c-1.9,4.7-3.7,9.4-5.6,14c0.5,0.2,0.9,0.4,1.4,0.6c2.7-3.8,5.3-7.6,8-11.4
	c0.5,0.3,1.1,0.5,1.6,0.8c-0.7,2.6-1.5,5.2-2.2,7.8c-0.6,2.5-1.2,5.1-1.8,7.7c0.6,0.1,1.1,0.2,1.7,0.3c2-4.1,4.1-8.3,6.1-12.4
	c0.5,0.2,1,0.4,1.5,0.6c-1,5.3-2,10.5-3,15.8c0.3,0,0.6,0.1,0.9,0.1c2.8-3.1,5.6-6.2,8.4-9.3c0.4,0.3,0.8,0.5,1.1,0.8
	c-1.5,4.1-3,8.3-4.5,12.4c0.5,0.1,0.9,0.3,1.4,0.4c2.8-3.1,5.6-6.2,8.4-9.3c0.4,0.2,0.8,0.5,1.2,0.7c-1.4,4-2.9,8-4.3,12.1
	c0.5,0.3,0.9,0.6,1.4,0.9c2.9-3.3,5.8-6.6,8.8-9.9c0.4,0.2,0.8,0.4,1.2,0.6c-1.3,3.7-2.6,7.4-3.9,11.2c0.5,0.3,0.9,0.5,1.4,0.8
	c2.7-2.9,5.5-5.8,8.2-8.7c0.3,0.3,0.7,0.5,1,0.8c-1.1,3.5-2.2,6.9-3.2,10.4c0.4,0.3,0.9,0.5,1.3,0.8c2.3-2.3,4.7-4.7,7-7
	c0.3,0.2,0.6,0.5,0.9,0.7c-0.6,2.7-1.1,5.3-1.7,8c0.4,0.3,0.7,0.6,1.1,0.9c2.6-2.5,5.1-5.1,7.7-7.6c0.3,0.3,0.7,0.5,1,0.8
	c-0.7,2.6-1.4,5.2-2.1,7.8c0.4,0.3,0.7,0.6,1.1,0.9c2.6-2.3,5.1-4.5,7.7-6.8c0.3,0.2,0.6,0.5,0.9,0.7c-0.5,2.2-1.1,4.4-1.6,6.7
	c0.3,0.2,0.7,0.4,1,0.6c2.3-2.1,4.7-4.3,7.9-7.2c-0.2,3.3-0.4,5.2-0.6,8.7c3.6-2.8,6.2-4.9,9.8-7.7c-0.5,2.7-0.7,4-1,5.8
	c3.4-2.2,6.3-4.1,9.7-6.4c-0.1,1.8-0.2,2.9-0.4,5.4c3-3.1,4.7-5.6,7-7.3c11.2-8.5,12.6-20.5,2.9-30.8c-3.7-3.9-8.2-7.3-12.9-10.2
	c-13.3-8.3-26.8-16.1-40.2-24.2c-2.3-1.4-4.9-2.5-6.7-4.4c-6.6-7.3-15.3-10.3-24.4-12.7c-6.1-1.6-12.1-3.5-17.9-6
	c-13.5-5.8-24.2-15.8-35.4-25c-8.9-7.3-19.2-10.8-30.5-11.7c-6.1-0.5-12.1-1.3-18.2-1.9c4.5-7.1,6.9-8.4,11.7-6.5
	c-1.3,1.3-2.5,2.6-3.7,3.9c8.8-4.3,8.8-4.3,11.3-3.1c-1,1.1-1.9,2.2-2.8,3.2c3.3-1.2,6.3-2.3,9.4-3.4c0.2,0.5,0.3,0.9,0.5,1.4
	c-0.8,1.1-1.7,2.1-2.5,3.2c3.1-0.7,5.3-5.3,9-1.4c-0.7,1.1-1.4,2.2-1.9,2.9c2.5-0.6,4.9-1.3,7.3-1.9c0.1,0.5,0.2,0.9,0.4,1.4
	c-0.5,1-1.1,1.9-1.8,3.2c7.3-1.1,8.5-11.1,17-10.1c-0.5,1.5-0.9,2.5-0.8,2.2c2,0.8,3.5,1.4,5.5,2.2c-2,2.2-3,3.4-4.1,4.6
	c8.4-4.4,13.1-14.1,24.3-15c-7.2,8.1-16.9,12.8-21.9,22.2c4.5-3.9,8.7-8.1,13-12.2c5.8-5.6,10.5-7.9,15.5-8.1c-5,4.7-10,9.3-15,14
	c0.3,0.4,0.7,0.7,1,1.1c5.8-4.9,10.3-11.8,19.7-14.2c-7.4,10.9-19.3,16.2-24.1,27.5c8.7-7.9,15.2-18.2,27-22.9c-1,2.1-2,4.2-3.2,6.6
	c3-1.7,5.5-3.1,8-4.5c0.4,0.4,0.8,0.9,1.1,1.3c-8.2,9.1-16.4,18.1-24.6,27.2c0.5,0.5,1,0.9,1.5,1.4c7.9-8.6,15.8-17.2,23.6-25.8
	c0.4,0.4,0.8,0.7,1.2,1.1c-3.4,11.8-15.6,17.3-21.1,29c2.7-2.3,4.8-3.6,6.4-5.4c5.7-6.3,11.3-12.7,16.8-19.1
	c1.1-1.3,2.7-3.1,2.5-4.5c-0.5-4.2-1-5,1.3-7.1c2.8-2.5,6.2-4.4,9.3-6.6c0.2,0.3,0.4,0.6,0.6,1c-2.2,2.8-4.4,5.7-6.6,8.5
	c0.2,0.1,0.3,0.2,0.5,0.2c4.8-3.2,9.6-6.4,14.4-9.6c0.3,0.4,0.5,0.8,0.8,1.1c-4.9,7.9-14.5,11.7-18.3,20.6
	c7.9-7.8,15-16.4,27.5-20.4c-2.7,2.8-4.3,4.6-6,6.3c-13.6,11.4-25.2,24.6-35.9,38.6c0.3,0.3,0.7,0.6,1,1
	C537.4,61.3,549.2,48.3,561,35.3z M247.1,37.6c-3.7-0.7-6-1.4-8.3-1.5c-13.6-0.3-27.3,0-40.9-0.9c-7-0.4-11.8,1.9-14.5,7.9
	c-3.2,6.9-5.6,14.1-8.4,21.2c-0.1,0.2-0.2,0.4-0.1,0.5c2.6,5.3-1.4,9.3-2.7,13.9c-0.3,1-1.2,2.4-0.9,2.8c4,4.8-0.9,8.2-1.8,12.1
	c-0.6,3-2,5.8-3.1,8.7c0.3,0.1,0.6,0.2,0.8,0.2c1.1-1.6,2.1-3.2,3.2-4.8c-0.5,4.6-2.1,8.8-3.5,13c-1.5,4.3-2.8,8.6-4.2,12.9
	c0.3,0.1,0.6,0.2,0.9,0.3c1.2-1.9,2.3-3.8,3.5-5.6c0.3,0.1,0.6,0.3,1,0.4c-2.6,8.6-5.2,17.2-7.8,25.9c0.5,0.1,0.9,0.3,1.4,0.4
	c1.8-3.4,3.7-6.9,5.5-10.3c0.3,0.1,0.7,0.3,1,0.4c-2.9,10.9-5.8,21.8-8.7,32.7c0.4,0.1,0.9,0.3,1.3,0.4c1.7-4,3.4-8,5.1-12
	c0.2,0.1,0.4,0.2,0.6,0.3c-2.3,11.3-4.6,22.6-6.9,34c0.5,0.1,0.9,0.2,1.4,0.3c2.7-7,5.3-14,8-21c1,17.1-9.8,31.8-7.9,48.9
	c2.6-8,5.2-16.1,7.9-24.1c0.9,14.9-7.1,28.7-3.9,45c1.5-5.5,2.7-9.7,3.8-13.9c0.4,0.1,0.7,0.2,1.1,0.2c0.9,5.5,1.8,10.9,2.7,16.4
	c0.3,0,0.7,0,1,0c1.1-2.3,2.1-4.6,3.3-7.2c1.5,2.7,2.8,4.9,4.3,7.6c1.5-3.1,2.6-5.3,3.8-7.8c1.8,2.6,3.1,4.5,4.7,6.7
	c1.3-2.8,2.2-4.9,3.4-7.4c1.9,2.7,3.3,4.9,5.5,8.2c0.5-4.1,0.9-6.8,1.3-10.6c2.5,3.9,4.3,6.6,6.8,10.5c0.5-4.4,0.8-7.2,1.3-11.1
	c2.8,3.8,4.9,6.7,7.6,10.3c0.4-3.9,0.6-6.5,0.9-10c2.9,3.8,5,6.6,7.2,9.4c0.3-0.2,0.7-0.5,1-0.7c0.2-2,0.3-4,0.5-6.9
	c2.7,3.2,4.7,5.7,6.7,8.1c1.1-1.7,1.1-2.7,1.2-3.7c0.1-0.8,0.4-1.6,0.8-3.2c1,1.5,1.5,2.3,2.1,3c0.6,0.7,1.3,1.3,2.9,2.8
	c-0.7-2.9-1.1-4.6-1.5-6.3c-6.5-24.3-11.8-48.8-13.2-74.1c-1.6-28.3,1.4-56.2,6.4-84C232.9,62.5,234.7,48.7,247.1,37.6z
	 M145.3,146.2c0.5,0.1,1,0.2,1.6,0.2c-1.1,4.9-1.5,10.2-3.4,14.8c-12.1,29.7-21.2,60.2-27.2,91.6c-2.3,12-3.9,24.2-5.9,36.4
	c4.6,0,4.6,0,5.2-5.5c4.2-34.5,12-68.2,23.5-100.9c1.7-4.8,3.7-9.4,5.6-14.2c0.5,0.1,0.9,0.3,1.4,0.4c-1.5,6.9-2.7,13.9-4.5,20.8
	c-5.7,22-12.1,43.9-17.4,66.1c-2.6,10.7-3.5,21.9-5.2,32.8c0.7,0.3,1.4,0.6,2.1,0.9c0.8-1.3,2.2-2.5,2.4-3.8
	c5.4-37.8,13.3-75,26.9-110.9c1.6-4.3,2-9.1,2.9-13.7c-0.4-0.1-0.7-0.2-1.1-0.2c-0.6,1-1.3,1.9-1.9,2.9c-0.5-0.2-1-0.4-1.6-0.6
	c2.3-9,4.6-18.1,6.9-27.1c-0.3-0.1-0.5-0.2-0.8-0.3c-1.4,2.5-2.7,5-4.1,7.5c-0.6-0.2-1.1-0.4-1.7-0.6c1.4-4.6,2.5-9.3,4.2-13.8
	c1.7-4.7,3.8-9.2,5.8-13.8c-0.5-0.2-1-0.5-1.5-0.7c-2,3.4-4,6.8-6,10.2c-0.6-0.3-1.3-0.7-1.9-1c4.1-9.4,8.2-18.8,12.3-28.3
	c-0.3-0.2-0.6-0.3-0.9-0.5c-2.2,3.2-4.4,6.5-6.6,9.7c-0.7-0.4-1.3-0.8-2-1.1c4.4-8.6,8.7-17.1,13.1-25.7c-0.3-0.2-0.5-0.3-0.8-0.5
	c-2.1,2.8-4.3,5.6-7.1,9.2c0.3-11.1,9.3-16.7,11.5-25.7c-1.9,2.3-3.8,4.6-6.5,7.9c1.2-10.1,8.9-15.2,12.6-22.5
	c-0.3-0.3-0.7-0.5-1-0.8c-1.8,2.3-3.7,4.6-5.5,6.9c-0.4-0.3-0.7-0.5-1.1-0.8c1-2.2,1.8-4.5,3.1-6.5c1.3-2.1,3-4,4.6-5.9
	c1.5-1.7,3-3.4,4.6-5c-0.3-0.2-0.5-0.4-0.8-0.6c-1.3,1.1-2.7,2.3-4,3.4c-0.2-0.1-0.4-0.2-0.6-0.4c1.3-2.8,2.7-5.5,4-8.3
	c-0.3-0.4-0.5-0.7-0.8-1.1c-2,1.3-4.2,2.3-5.9,4c-3.5,3.4-6.4,7.2-9.9,10.5c-36.6,34.9-62.1,77.1-80.4,123.9
	c-12.3,31.4-20.6,64-26.3,97.2c-1.7,9.6-3,19.2-4.5,28.8c4.2,1.2,4.5-1.2,4.8-3.7c5.5-42.4,15-83.8,30.8-123.7
	c13.4-33.9,30.6-65.4,53.2-93.9c8.4-10.5,17.5-20.4,26.3-30.5c0.6,5.8-2.5,9.4-5.8,12.8c-33,33.9-55.5,74.3-72,118.2
	c-11.7,31-19.6,63.3-25,96c-1.4,8.1-2.5,16.3-3.7,24.3c4.6,1.2,4.3-1.5,4.6-3.8c5.2-38.5,13.4-76.3,27-112.9
	c10.2-27.6,22.5-54.1,38.9-78.6c9.9-14.8,20.9-28.7,31.4-43.1c0.7,0.5,1.5,1,2.2,1.5c-3.5,5.5-6.7,11.2-10.7,16.3
	C128.1,102.5,109,137.4,95,175.1c-10.7,28.8-18.2,58.5-23.2,88.8c-1.5,9-2.7,18-4,26.8c4.3,1.5,4.4-1.1,4.7-3.5
	c1.7-11.2,3.2-22.4,5.3-33.6c9.9-52.8,27-102.9,55.1-149c7.1-11.7,15.2-22.9,22.8-34.3c0.7,0.4,1.4,0.8,2.1,1.3
	c-2.8,5-5.1,10.2-8.4,14.8c-20.1,28.5-35.4,59.5-47.2,92.1c-9.5,26.5-16.4,53.8-21.2,81.6c-1.8,10.1-3.2,20.3-4.7,30.4
	c0.6,0.3,1.2,0.6,1.8,0.9c0.9-1.4,2.4-2.6,2.7-4.1c1.8-10.3,3.1-20.7,5-31.1c9.4-51.5,25.7-100.5,52.2-145.9
	c4.1-7.1,8.7-13.9,13-20.9c0.6,0.3,1.2,0.7,1.9,1c-3.4,6.8-6.7,13.5-10.1,20.3c-9,18-18.9,35.6-26.7,54.1
	c-11.7,27.6-19.4,56.6-25,86.1c-2.5,13-4.4,26.2-6.5,39.3c4.6,1.2,4.6-1.6,5-4c2.4-14.3,4.3-28.7,7.2-42.8
	c9.4-45.9,24.8-89.7,48.3-130.5c0.9-1.5,1.9-3,2.9-4.5c0.6,0.3,1.2,0.6,1.8,0.9c-2.6,6.2-5.1,12.5-7.8,18.6
	c-7.2,15.9-15.3,31.4-21.5,47.7c-10.8,28.5-18.2,58.1-23.2,88.2c-1.4,8.8-2.7,17.6-4,26.4c0.6,0.3,1.2,0.5,1.8,0.8
	c0.9-1.3,2.4-2.6,2.7-4c1.8-10.3,3.1-20.7,5-31c8-43.3,20.8-84.9,40.8-124.2c0.9-1.8,1.9-3.6,2.9-5.4c0.6,0.3,1.2,0.5,1.8,0.8
	c-1.7,5.1-3.1,10.4-5.2,15.3c-4.9,12-10.8,23.6-15.2,35.8c-9.1,25.2-16,51.1-20.7,77.6c-2,11.2-3.7,22.5-5.6,34
	c4.4-0.4,4.4-0.4,4.9-3.9c2.7-15.7,5.1-31.6,8.3-47.2C121.4,206.8,131.9,176,145.3,146.2z M483.7,149.9c0.5,0.1,0.9,0.1,1.4,0.2
	c-0.6,5.6-1.1,11.1-1.7,16.7c0.4,0.1,0.8,0.2,1.2,0.3c1.6-3.4,3.2-6.9,4.8-10.3c0.4,0.2,0.8,0.4,1.2,0.6c-1.2,7.6-1.5,15.5-7.4,21.6
	c-2.4,2.5-4.7,3-7.7,0.8c6.7-6,7.2-15.3,2-22.6c-1.4,0.6-2.7,1-4,1.5c-0.3-1.4-0.5-2.7-0.8-4.1c-0.2-0.8-0.4-1.8-0.9-2.4
	c-0.2-0.2-1.4,0.2-2,0.5c-1.3,0.7-2.6,1.5-3.9,2.3c-0.3-1.6-0.5-3.2-0.8-5.3c-0.6,0.1-1.8-0.1-2.6,0.5c-0.9,0.7-1.5,1.9-2.5,3.3
	c-1.2-1.5-2-2.6-2.9-3.9c-6.9,4.4-8.2,11.2-9.5,18c4.1,2,8.3,3.5,11.8,5.9c14.9,10.2,32.1,14.2,49.1,18.6c4.7,1.2,9.9,1,14.9,0.6
	c13.2-1.1,26.4-2.5,39.6-4c10-1.2,20.2-1.9,29.3-7.1c-0.1-0.6-0.2-1.1-0.4-1.7c-3.9,0.8-7.8,1.6-11.6,2.4c0.2-0.5,0.6-1.4,1.5-3.6
	c-3.4,1.6-5.5,2.7-7.7,3.7c-0.6-1.7-1.1-2.9-1.5-4.1c-1.1,0.7-2.3,1.3-3.4,2c-1.4,0.9-2.7,1.9-4.9,3.4c0.3-1.9,0.6-2.6,0.6-3.2
	c0-1.4-0.2-2.9-0.2-4.3c-1,0.9-2.2,1.8-3.1,2.8c-1.6,1.7-3.2,3.4-4.8,5.2c-0.4-0.3-0.8-0.7-1.2-1c0.7-1.8,1.6-3.6,1.9-5.5
	c0.2-1.4-0.3-2.9-0.6-4.3c-6.1,9.2-6.1,9.2-9.8,10c0.8-2.3,1.7-4.4,2.2-6.7c0.4-1.9,0.1-4,0.1-6c-1.2,1.6-2.7,3.1-3.5,4.9
	c-1.7,4-3,8.2-8.4,10.8c2.4-6.9,4.4-12.6,6.7-19.3c-3.2,0.4-5.5,0.7-7.7,1c-0.5-1.5-0.9-2.9-1.3-4.2c-1.3,0.8-2.6,1.6-4,2.3
	c-3.8,0.9,1.1-10.7-6.8-4.4c-1.1-2.4-2.2-4.7-3.7-7.9c-1.5,2.8-2.3,4.4-3.2,5.9c-0.4,0-0.8,0-1.2,0c-0.5-3-1.1-6.1-1.6-9.1
	c-0.4,0-0.9,0.1-1.3,0.1c-1.2,2.3-2.3,4.5-3.5,6.8c-1.2-2.1-1.4-3.9-1.6-5.8c-0.2-1.6-0.4-3.1-0.6-4.7c-0.5,0.1-0.9,0.2-1.4,0.3
	c-1,1.8-1.9,3.6-2.8,5.4c-4-2.2,1.3-7.7-4-9.1c-1.2,2.2-2.2,4.2-3.3,6.1c-0.4-0.1-0.9-0.2-1.3-0.3c-0.1-1.9,0-3.8-0.3-5.6
	c-0.1-1-0.8-1.9-1.2-2.8c-0.8,0.5-1.6,0.9-2.3,1.5c-1.6,1.4-3,3-4.5,4.5c-0.3-0.3-0.6-0.5-0.9-0.8c0.6-2.3,1.3-4.5,2.3-8.2
	c-5.4,2-6.5,6.2-8.3,9.4c-1.5,2.6-2.9,5.8,0.9,8.4C481.6,153.9,482.6,151.9,483.7,149.9z M504.2,233.8c-2.7,2.3-5.2,4.3-8.2,6.7
	c0-3,0-5.2,0-8.9c-3.2,3-5.5,5.1-8.1,7.5c-0.1-2.8-0.2-5-0.4-8.2c-3.2,2.4-5.4,4.1-8.1,6.1c0.4-2.7,0.7-4.7,1.2-7.9
	c-3,2-5.1,3.4-7.5,5c0-1.9,0-3.4,0-5.7c-11.2,7.9-8.7,19.8-10.8,31.1c-5.8-11.9,0.9-22,1.8-32.5c-8.8,6.5-6.2,16.8-8.6,25.5
	c-3.8-9.8-1.3-19.2,2-29.1c-4.8,2.6-6.2,6.7-6.9,10.9c-0.7,4.2-1.1,8.4-1.6,12.6c-5.3-9.7,0.1-19,1.2-29.6c-5.9,6-5.5,12.6-6.8,18.9
	c-1.3,6.1,1.5,10.1,5,14.1c7,8.1,15.8,13.7,26.2,15.3c14,2.1,28.1,3.7,42.2,4.2c11.7,0.5,22.9-3,31.9-10.9c3.4-3,6.2-6.9,8.4-10.9
	c2.2-4-0.5-10.3-4.1-10.6c1.7,9.5-3.5,16.2-8.6,23.1c2.3-7.7,6-15.2,1-23.6c-1.2,1.5-2.2,2.7-3.2,3.9c-2-1.6-3.8-3-5.5-4.4
	c-1,2.3-1.8,4-2.7,6c-2.1-2.5-3.7-4.5-5.7-6.9c-1.1,2.8-1.8,4.7-2.8,7.3c-2.1-3.1-3.6-5.3-5.2-7.6c-1.5,2.2-2.8,3.9-4.1,5.8
	c-1.7-2.8-3.1-4.9-4.7-7.4c-1.8,2.3-3.1,3.9-4.5,5.8C506.3,237.6,505.5,236.1,504.2,233.8z M546.5,231.3c8.3-4.1,4.9-14.4,12.5-19.6
	c-1.6,7.1-2.9,13-4.2,18.9c0.5,0.2,0.9,0.3,1.4,0.5c7.7-6.7,5.9-18.4,13.1-25.7c-0.1,4.1-0.5,8.1-1.5,11.9
	c-1.1,3.9-2.8,7.7-4.3,11.7c15.1-1,26.4-14.9,26.5-31.8c-4.4,5.5-2.2,14.7-10.3,19c0.6-8.8,7.8-15.8,3.6-25.4
	c-3.3,12.4-3,25.2-13.4,33.8c1.9-7.5,5.2-14.5,7.3-21.9c0.9-3.3,0.8-7.6-2.1-11.4c-2.6,3.2-4.7,5.8-6.8,8.5
	c-0.2-0.1-0.4-0.2-0.7-0.4c0.3-1.7,0.7-3.4,1-5.4c-5.9-0.9-5.5,6.3-10.2,7.4c0.4-2.3,0.8-4.3,1.2-6.3c-0.5-0.3-1-0.7-1.5-1
	c-3,3.4-6,6.8-9,10.3c0.4-2.8,0.8-5.5,1.2-8.2c-0.5-0.3-1.1-0.6-1.6-0.8c-2.5,2.2-4.9,4.3-7.7,6.8c0.4-2.2,0.8-4,1.1-5.8
	c-0.5-0.3-0.9-0.7-1.4-1c-2.6,2.7-5.2,5.4-7.7,7.9c-0.6-2.4-1-4.5-1.8-7.7c-2.3,3.6-3.7,5.6-5.2,8c-1.3-2.1-2.1-3.4-4-6.4
	c-1.6,2.8-2.8,4.9-4.3,7.6c-1.2-2.8-1.8-4.2-2.9-6.8c-2.6,3.1-4.7,5.7-7.3,8.8c0-2.9,0-5.1,0-8.7c-3.6,3.1-6.4,5.4-10,8.5
	c0.6-3.9,1.1-6.7,1.5-9.5c-0.4-0.3-0.8-0.5-1.2-0.8c-2.9,3.2-5.8,6.3-9.3,10.2c1-4.3,1.8-7.8,2.6-11.4c-0.5-0.4-0.9-0.7-1.4-1.1
	c-2.9,3-5.8,6.1-8.7,9.1c-0.2-2.1,0.6-3.8,0.7-5.5c0.2-1.7-0.2-3.5-0.3-5.3c-1.6,1-3.4,1.8-4.7,3.1c-0.8,0.8-1.2,2.4-1.4,3.7
	c-0.8,6.8-1.6,13.6-2.1,20.4c-0.1,1.7,1,3.4,1.9,6.1c1.7-7.5,3.1-13.4,4.5-19.3c0.7,0.1,1.3,0.3,2,0.4c-0.5,6.3-0.9,12.5-1.4,18.8
	c0.7,0.2,1.4,0.4,2.2,0.6c1.5-4.8,3.1-9.6,4.6-14.4c0.9,4.1,0.8,8,1,11.9c0,1,0.9,2,1.4,3c0.9-0.7,2.2-1.3,2.6-2.2
	c0.7-1.3,0.6-2.9,1.1-4.3c1-3.1,2.2-6.2,3.3-9.4c0.5,0.1,1,0.3,1.4,0.4c-0.5,5.2-0.9,10.4-1.4,15.6c0.5,0.3,1,0.6,1.5,1
	c4.7-3.4,2.6-11.7,8.5-14.8c-0.6,5.1-1.2,9.9-1.7,14.6c0.6,0.3,1.1,0.6,1.7,0.9c4.7-3.1,2.2-10.8,7.5-14.3
	c-0.3,5.1-0.5,9.7-0.7,14.5c5.4,0.9,3.7-3.9,4.8-6.1c1.4-2.7,2.3-5.7,3.4-8.5c0.3,0.1,0.6,0.2,0.9,0.3c-0.4,4.9-0.9,9.8-1.3,14.8
	c0.4,0.4,0.8,0.7,1.3,1.1c1.1-1.1,2.6-2.1,3.2-3.4c1.8-4.3,3.2-8.7,4.7-13.1c0.5,0.2,1,0.3,1.4,0.5c-0.3,3.1-0.7,6.3-1,9.4
	c-0.6,6.2-0.6,6.2,2,6.8c2.1-5.9,4.3-11.8,6.4-17.8c0.5,0.2,1,0.3,1.5,0.5c-0.9,5.8-1.7,11.6-2.7,18c8.5-4.6,5.1-15.4,12.5-21.2
	C549.1,217.5,547.8,224.1,546.5,231.3z M627.6,164c5.4-4.7,7.6-11,8.2-17.8c1.1-12.6-4.8-23.1-11.1-33
	c-7.7-12.2-19.3-20.9-31.3-30.7c-4.4,6.6-8.7,12.9-12.7,19.3c-0.7,1.1-0.3,2.8-0.4,4.2c0.4,0,0.8,0.1,1.3,0.1
	c1.1-1.1,2.1-2.2,3.9-4.2c0.6,3.4,1,5.8,1.5,9.1c1.9-2,3-3.1,4.7-4.9c0.6,3.2,1.1,5.7,1.7,8.6c1.6-1.5,2.7-2.5,4.2-3.9
	c0.7,3.1,1.2,5.5,1.9,8.4c1.5-1.4,2.6-2.4,4.2-4c0.7,3.4,1.2,6,1.9,9.3c1.7-2.2,2.6-3.4,4.2-5.5c0.7,3.6,1.3,6.1,2,9.4
	c1.7-1.9,2.6-2.9,4-4.5c0.8,3.4,1.4,6.1,2.2,9.6c1.7-2.2,2.5-3.3,4.2-5.5c0.3,4.7,0.5,8.1,0.7,11.5c0.4,0,0.8,0,1.2,0.1
	c1.3-2.6,2.7-5.2,4-7.8c0.6,0.2,1.1,0.4,1.7,0.6c-1.4,6.3-2.7,12.6-4.1,18.9c0.5,0.1,1,0.3,1.5,0.4c1.5-3.1,3-6.3,5-10.6
	C634.2,150.6,629.1,156.9,627.6,164z M459.3,217.5c4.1-7.3,2.1-15,8.1-19.6c-0.1,3.7-1,7.3-1.3,10.9c-0.3,3.5,0,7,0.1,10.5
	c0.7,0,1.4,0.1,2,0.1c2.4-10,4.8-20,7.3-30c-0.3-0.2-0.7-0.4-1-0.7c-2.2,1.5-4.4,3-7.7,5.1c0.6-3.5,1.1-5.9,1.5-8.3
	c-0.7-0.6-1.4-1.2-2-1.7c-1.4,2.7-2.8,5.3-4.2,8c-0.5-0.4-1-0.8-1.5-1.2c0.4-2.7,0.7-5.4,1.2-9.2c-11.4,6-8.2,17.2-11.1,25.6
	c-0.5,1.3,0.9,3.3,1.5,5c0.5-0.1,1-0.2,1.5-0.2c1.6-6.2,0.9-13.3,6.9-18.9c-1.2,7-2.3,13.1-3.1,19.1
	C457.4,213.3,458.4,214.8,459.3,217.5z M127.8,288.4c3.7-0.3,3.7-0.3,4.3-3.9c4.4-28.2,9.8-56.3,18.4-83.6
	c1.6-5.1,1.7-10.7,2.6-16.1c-0.5-0.1-1-0.2-1.5-0.2C140.1,218.3,131.8,252.8,127.8,288.4z M135.3,287.2c5,1.7,5.1-0.5,5.5-3
	c3.1-16.7,6.4-33.3,9.4-49.9c1.4-7.7,2.1-15.5,3.1-23.2c-0.8-0.1-1.7-0.3-2.5-0.4C145.7,236.1,140.5,261.5,135.3,287.2z M448.6,182
	c-1.1,8.3-4.4,15.4-1.4,22.2c3-8.9,5.9-17.8,9.2-27.5c-2.8,0.6-4.4,0.9-6,1.3c-1.5-2.4-2.8-4.5-4.9-7.9c-1.6,10.4-3,19.1-4.4,27.8
	c0.5,0.1,1,0.2,1.5,0.3C443.4,192.7,442.8,186.6,448.6,182z M144.6,286.2c0.6,0.5,1.2,0.9,1.8,1.4c1-1.1,2.6-2,2.9-3.3
	c1.9-10.1,3.9-20.2,5.1-30.4c0.7-5.6,0.1-11.4,0.1-17.1c-0.4,0-0.8-0.1-1.2-0.1C150.4,253.2,147.5,269.7,144.6,286.2z M557.3,90
	c12.4-15.6,24.8-31.1,37.2-46.7C585.6,49.3,561.2,78.9,557.3,90z M544.3,80.5c0.6,0.5,1.2,1.1,1.8,1.6c9.2-11.6,18.4-23.1,27.7-34.7
	c-0.5-0.4-0.9-0.7-1.4-1.1C563,57.8,553.7,69.2,544.3,80.5z M159.9,261.7c-0.9-0.1-1.8-0.2-2.6-0.2c-1.2,8-2.5,16.1-3.8,24.5
	c1.6,0,2.4,0.2,3.1-0.1c0.6-0.3,1.2-1.1,1.3-1.8C158.6,276.7,159.2,269.2,159.9,261.7z M556.9,47.6c-0.5-0.4-0.9-0.8-1.4-1.1
	c-8.3,9.9-16.6,19.8-24.9,29.7c0.6,0.5,1.2,1,1.8,1.5C540.6,67.7,548.8,57.6,556.9,47.6z M437.5,227.7c1.2-7.4,5.9-13.1,2.5-20.3
	C435.5,213,434.5,219.8,437.5,227.7z M816.6,37.1c-0.2-0.3-0.5-0.6-0.7-0.9c-7.9,7.1-15.7,14.2-23.6,21.4c0.4,0.4,0.7,0.7,1.1,1.1
	C801.1,51.4,808.9,44.2,816.6,37.1z M430.8,221.9c1.1-3.6,2.2-6.7,3.1-9.9c0.9-3.1,1.6-6.2,2.3-9.3
	C430,207.4,428.4,214.6,430.8,221.9z M439,146.5c0.5,0.3,0.9,0.6,1.4,0.8c3.4-5.8,6.7-11.5,10.1-17.3c-0.5-0.3-0.9-0.6-1.4-0.8
	C442.8,133.2,441.5,140.2,439,146.5z M479.3,138.1c-4.3-0.8-5.5,2.3-6.2,5.4c-0.4,2-3,5,1.2,6.3C476,145.8,477.6,142.1,479.3,138.1z
	 M820.6,41.9c-0.3-0.3-0.6-0.6-0.9-0.9c-4.9,4.6-9.8,9.1-14.7,13.7c0.2,0.2,0.5,0.5,0.7,0.7C810.7,50.9,815.6,46.4,820.6,41.9z
	 M515.5,48.2c-0.4-0.4-0.7-0.7-1.1-1.1c-4.6,4.3-9.3,8.6-13.9,13c0.4,0.4,0.7,0.7,1.1,1.1C506.3,56.9,510.9,52.6,515.5,48.2z
	 M443.1,158.4c0.6,0.3,1.2,0.5,1.7,0.8c2.1-4.5,4.1-9,6.2-13.4c-0.6-0.3-1.3-0.6-1.9-0.8C447.1,149.4,445.1,153.9,443.1,158.4z
	 M530,58.8c-0.4-0.3-0.9-0.7-1.3-1c-3.6,4.3-7.2,8.7-10.8,13c0.5,0.4,1,0.8,1.5,1.2C523,67.6,526.5,63.2,530,58.8z M740.4,52.4
	c-0.4-0.4-0.9-0.8-1.3-1.2c-3.5,4-7,7.9-10.5,11.9c0.4,0.4,0.8,0.7,1.2,1.1C733.4,60.2,736.9,56.3,740.4,52.4z M655.4,69.3
	c4.9-1.9,8.8-4.7,9.7-11.6C661.2,62.3,658.3,65.8,655.4,69.3z M580.7,95c-6.8,3.4-7.5,4.8-5.3,8.1C577.3,100.3,579,97.6,580.7,95z"
	/>
<path d="M611.7,138.7c-0.7-1.1-1.5-2-2-3.2c-0.4-0.9-0.3-2.1-0.5-3c-2.5-0.6-6.8,3.7-6-2.7c0-0.3-0.5-0.9-0.9-1
	c-3.8-1-8.2-1-11.4-3c-6.5-4-6.2,2.1-8,4.7c-2.3,3.2-4.2,6.7-6.2,10.1c-0.5-0.2-1-0.4-1.5-0.6c1.4-3.9,2.7-7.8,4.1-11.6
	c-9,8-8.7,17.4,0.8,24.4c3,2.2,5.8,4.5,8.9,6.5c9.1,6.1,20.2,2.3,23.8-8.1c1.3-3.7,2.2-7.6,3.5-11.8c5.8,11.4-0.8,23.7-12.3,26.5
	c-14,3.5-30.5-7.3-33.4-21.5c-0.3-1.3-0.5-2.6-0.9-4.4c-0.9,1.3-1.6,2.3-2.5,3.6c-1.2-9.1,2.4-16.4,11.8-23.8
	c-0.9,2.2-1.5,3.8-2.1,5.4c5.6-6.7,12.5-4.4,18.5-1.9c5.9,2.4,11.2,6.3,16.6,9.9c1.1,0.7,1,3.1,1.4,4.7
	C612.8,138.3,612.2,138.5,611.7,138.7z"/>
<path d="M329.3,156.1c0.7-3.6,0.6-7.5,2.1-10.6c7.4-14.8,15.3-29.4,23.7-43.7c-3.7,20.2-16.4,36.3-24.1,54.7
	C330.5,156.4,329.9,156.3,329.3,156.1z"/>
<path d="M250.9,184.5c0.4-3.5,0.6-7.1,1.3-10.5c0.6-2.9,1.8-5.7,3-8.4c5.4-12.3,10.9-24.6,16.3-36.9
	c0.6,0.1,1.1,0.2,1.7,0.3c-0.3,3,0,6.2-1.1,8.9c-6.5,15.7-13.3,31.2-20,46.7C251.7,184.6,251.3,184.5,250.9,184.5z"/>
<path d="M364.9,167.1c8.4-18,16.8-35.9,25.1-53.9C392.2,121.9,374,161.2,364.9,167.1z"/>
<path d="M384,112c-6.4,19.2-13.8,38-25.4,54.8C364.2,147.2,373.6,129.4,384,112z"/>
<path d="M337.1,159c0.3-2.9-0.1-6.1,1.1-8.6c7.3-15.2,14.9-30.2,23.2-44.9c-4.4,19.4-14.7,36.1-22.8,53.8
	C338.1,159.2,337.6,159.1,337.1,159z"/>
<path d="M344.6,161.8c2.8-19.8,14.5-35.8,23.5-52.9C364.5,128.3,354,144.8,344.6,161.8z"/>
<path d="M257.8,190.3c0.2-3.2-0.3-6.7,0.8-9.5c4.1-11.1,8.6-21.9,13.1-32.9c1.2-3,2.7-6,4-9c0.5,0.1,0.9,0.2,1.4,0.3
	c-0.5,3.6-0.4,7.3-1.7,10.6c-5.3,13.6-11,27.1-16.5,40.6C258.5,190.4,258.1,190.4,257.8,190.3z"/>
<path d="M376.3,110c-5.3,19.2-13,37.3-25,53.5C356.4,144.1,366.5,127.1,376.3,110z"/>
<path d="M323.8,152c0-2.5-0.8-5.3,0.1-7.3c7.1-14.6,14.6-28.9,22.7-43c-2.5,19-15.5,33.2-21.4,50.6
	C324.7,152.2,324.2,152.1,323.8,152z"/>
<path d="M339.7,103c-8,17-16,34.1-24,51.1c-0.6-0.1-1.2-0.2-1.8-0.2c0-1.9-0.6-4,0.1-5.7c6.3-16.3,14.8-31.3,23.9-46.1
	C338.5,102.4,339.1,102.7,339.7,103z"/>
<path d="M330.6,103.7c-6.9,15.1-13.9,30.1-21.3,46.1c-2.4-8.9,8.2-32.7,19.9-46.7C329.7,103.3,330.2,103.5,330.6,103.7z
	"/>
<path d="M280.3,135.8c0-2.1-0.5-4.4,0.1-6.3c3.9-11.7,11.2-21.2,18.7-30.6c0.5,0.3,0.9,0.5,1.4,0.8
	c-6.3,12.1-12.7,24.2-19,36.4C281.1,135.9,280.7,135.8,280.3,135.8z"/>
<path d="M302.9,142.1c0.2-15.6,11.3-26.2,18.3-38.8C318.3,117.8,309.9,129.6,302.9,142.1z"/>
<path d="M291.3,95.8c-1.3,12.8-9.9,22.1-15.6,32.9C274.8,115,285.4,106.5,291.3,95.8z"/>
<path d="M298.1,136.3c-0.6-14.7,8.3-24.4,16.7-34.5c0.4,0.2,0.9,0.4,1.3,0.7C310.1,113.8,304.1,125.1,298.1,136.3z"/>
<path d="M293.3,129.5c-1.4-12.7,5.9-21,13.6-29.1c0.4,0.2,0.9,0.4,1.3,0.7C303.3,110.6,298.3,120.1,293.3,129.5z"/>
<path d="M272.1,119.9c-0.8-11.6,7.5-19,13.1-27.7C284.5,103.2,277.3,111.1,272.1,119.9z"/>
<path d="M507.8,104.1c-4.2,9.6-5.5,20.4-12.9,28.6c-0.2-11.5,7.3-19.7,12.8-28.7L507.8,104.1z"/>
<path d="M545.4,93.5c-6,7.6-12,15.3-18,22.9C529.4,105.6,535.8,98.3,545.4,93.5z"/>
<path d="M507.6,104c4.4-10.5,12.9-17.5,21.2-17.7c-6.8,5.8-13.9,11.8-21,17.9C507.8,104.1,507.6,104,507.6,104z"/>
<path d="M521.4,110.6c2-10,9.2-18.1,16.9-19C532.8,97.8,526.9,104.4,521.4,110.6z"/>
<path d="M580.4,144.3c2.3-5.7,4.7-11.4,7.2-17.4c1.7,0.9,2.8,1.5,4.5,2.5c-3.4,5.5-6.6,10.7-9.8,15.9
	C581.6,144.9,581,144.6,580.4,144.3z"/>
<path d="M561.1,137.3c1.2-10.1,4.4-17.4,14-22C570.2,122.9,566,129.5,561.1,137.3z"/>
<path d="M593.9,151.2c2.3-5.4,4.6-10.9,6.9-16.3c0.5-0.1,0.9-0.2,1.4-0.4c0.6,1.3,2.1,3,1.7,3.8
	c-2.3,4.8-5.1,9.3-7.7,14C595.4,151.9,594.7,151.6,593.9,151.2z"/>
<path d="M586.5,147.9c2.6-5.6,5.2-11.2,7.9-16.9c3.3,0.5,4.7,1.9,2.7,4.6c-3,4.4-6.3,8.7-9.4,13
	C587.2,148.4,586.9,148.2,586.5,147.9z"/>
<path d="M502,136.7c-1.3-7.3,1.5-14.3,8.5-22.9c0.4,0.2,0.9,0.4,1.3,0.6C508.6,121.6,505.5,128.8,502,136.7z"/>
<path d="M487,131.3c-1.4-7.9,3.6-12.6,6.4-18.7C495.2,118.6,493,125,487,131.3z"/>
<path d="M606.8,139.9c4.5,3.3,2.3,9.5-5.8,15.2C602.9,150.2,604.8,145.3,606.8,139.9z"/>
<path d="M552.4,99.5c-4.9,5.5-9.8,11-14.7,16.5C539.7,108,544.2,102.1,552.4,99.5z"/>
<path d="M568.5,111.8c-3.9,4.6-7.8,9.1-11.6,13.7c-0.4-0.3-0.8-0.7-1.2-1c2-6.2,5.7-11.1,11.9-13.7
	C567.9,111.1,568.2,111.4,568.5,111.8z"/>
<path d="M486.9,114.2c-1.7,4.9-3.5,9.8-5.7,15.9C478.5,123.9,480.9,117.2,486.9,114.2z"/>
<path d="M561.5,107.5c-3.5,4.6-7.1,9.2-10.6,13.8c-0.7-0.6-1.5-1.1-2.2-1.7c3.5-4.6,7.1-9.2,10.6-13.8
	C560,106.4,560.8,107,561.5,107.5z"/>
<path d="M555.7,104.5c-3.6,4.5-7.3,9-10.9,13.4c-0.6-0.5-1.1-0.9-1.7-1.4c3.6-4.5,7.2-9,10.8-13.6
	C554.4,103.5,555.1,104,555.7,104.5z"/>
<path d="M477.4,114.5c-1,4-1.9,8.1-2.9,12.1c-0.8-0.2-1.7-0.4-2.5-0.6c0.9-4,1.8-8.1,2.7-12.1
	C475.6,114.1,476.5,114.3,477.4,114.5z"/>
<path d="M465.4,123.6c-2-4.7,0.7-8.1,3.1-11.6c0.5,0.1,1.1,0.3,1.6,0.4c-1,3.9-2,7.8-2.9,11.6
	C466.5,124,466,123.8,465.4,123.6z"/>
<path d="M494.3,32.6c-1.4-5,1.2-7.3,10-8.4C500.5,27.3,497.6,29.8,494.3,32.6z"/>
<path d="M290.6,129.4c-0.9,4.2-1.7,8.3-2.6,12.5c-0.6-0.1-1.2-0.2-1.8-0.4c-2-4.7,0.4-8.6,2.7-12.5
	C289.4,129.2,290,129.3,290.6,129.4z"/>
<path d="M457.4,120.4c0.9-3.4,1.9-6.9,2.8-10.3c0.9,0.2,1.7,0.4,2.6,0.7c-0.8,3.5-1.7,6.9-2.5,10.4
	C459.3,120.9,458.3,120.7,457.4,120.4z"/>
<path d="M291.4,146.5c0.5-3.3,1.1-6.7,1.6-10c4.1,4,2.5,7.2,0,10.3C292.5,146.7,292,146.6,291.4,146.5z"/>
<path d="M516.9,85.7c-3.8,3.3-7.7,6.6-12.5,10.8C507.1,90,510.9,86.6,516.9,85.7z"/>
<path d="M480.4,29.8c-2.7,1.2-3.8,6.7-9.7,2.2c3.6-1.5,6.3-2.7,9.1-3.8C479.9,28.7,480.2,29.2,480.4,29.8z"/>
<path d="M537.2,32.6c-1.9-5-0.5-6.6,8-8.7C542,27.3,539.7,29.8,537.2,32.6z"/>
<path d="M524.3,97.2c-2.5,3-4.9,6-8.1,9.8c0.1-6.5,3.4-8.7,7.1-10.7C523.6,96.6,523.9,96.9,524.3,97.2z"/>
<path d="M437.7,110.9c0.5-2.9,1-5.9,1.5-8.8c0.8,0.1,1.7,0.3,2.5,0.4c-0.5,3-1,6-1.5,9
	C439.4,111.2,438.5,111.1,437.7,110.9z"/>
<path d="M319.3,161c0.2-2.9,0.3-5.7,0.5-8.6c0.6,0,1.3,0,1.9,0c0,2.9,0,5.8,0,8.6C320.9,161.1,320.1,161,319.3,161z"/>
<path d="M447.8,106.4c-0.4,2.9-0.7,5.7-1.1,8.6c-0.8-0.1-1.6-0.2-2.4-0.3c0.4-2.9,0.8-5.7,1.1-8.6
	C446.2,106.2,447,106.3,447.8,106.4z"/>
<path d="M519.1,189.9c3.1-6.5,2.5-13.9,9.7-17.4C529.3,182.2,526.2,188.2,519.1,189.9z"/>
<path d="M498.4,159.7c-2.9,7.4-1.4,16.6-9.5,21.8C491.6,174.1,491.8,165.6,498.4,159.7z"/>
<path d="M503.2,163.8c3.2,6.5,0,15.2-7.8,20.9C498.3,177.1,500.6,170.8,503.2,163.8z"/>
<path d="M503.5,185.8c2.1-5.8,4.2-11.7,6.5-18C513.1,173.9,510.5,181.4,503.5,185.8z"/>
<path d="M511.7,188.7c1.4-5.1,1.2-10.5,6.6-13.9C519.1,183,517.3,186.7,511.7,188.7z"/>
<path d="M537.8,172.7c-1.4,5.5-2.1,11.4-8.7,14.4c2.4-5,4.7-10.1,7.1-15.1C536.7,172.2,537.3,172.4,537.8,172.7z"/>
<path d="M472.1,177.2c1.7-4.3,3-7.6,4.5-11.2C480,171.2,478.7,175.2,472.1,177.2z"/>
<path d="M461.2,171.8c-2.3-6.3-1-9.9,4.5-11.8C464,164.5,462.6,168.2,461.2,171.8z"/>
<path d="M466.5,173.3c0.9-3.3,1.8-6.6,2.7-9.9c0.6,0.2,1.2,0.3,1.8,0.5c1.7,3.9-1,6.8-2.9,9.9
	C467.6,173.6,467.1,173.5,466.5,173.3z"/>
<path d="M458.3,158.8c-1.4,3-2.7,6-4.3,9.4C451.7,162.8,452.7,160.1,458.3,158.8z"/>
<path d="M471.4,237.1c0,8.5,0,16.5,0,24.6C465.8,257.6,465.7,245.8,471.4,237.1z"/>
<path d="M479.2,238.7c0,8.9,0,16.8,0,25.1C474.3,258.5,474.2,246.5,479.2,238.7z"/>
<path d="M496.1,243.7c0,7.4,0,14.7,0,22.1c-0.6,0-1.1,0-1.7,0c-3.5-7.3-1.9-14.7,0.3-22.1
	C495.2,243.7,495.7,243.7,496.1,243.7z"/>
<path d="M487.8,242.7c0,7.2,0,14.3,0,22C483,260.2,482.9,251.4,487.8,242.7z"/>
<path d="M515.4,245.9c2,7,0.5,13.5-2.6,19.8c-0.6-0.1-1.2-0.1-1.8-0.2c0.8-6.6,1.5-13.2,2.3-19.9
	C514,245.7,514.7,245.8,515.4,245.9z"/>
<path d="M502.9,264.8c-1.1-7-1-13.9,2-20.5c0.6,0.1,1.2,0.1,1.8,0.2c-0.7,6.8-1.5,13.6-2.2,20.4
	C504,265,503.5,264.9,502.9,264.8z"/>
<path d="M523.1,247c3.3,6.6,2.2,12.1-3.5,18.1C520.8,259.1,522,253.1,523.1,247z"/>
<path d="M527.4,264.6c1.4-5.9,2.9-11.8,4.4-18C535.1,252.3,533.5,260.2,527.4,264.6z"/>
<path d="M541.3,245c1.6,7.5-0.9,12.7-5.5,18.4C537.8,256.9,539.4,251.4,541.3,245z"/>
<path d="M430.2,186.9c-0.2-4.1-0.5-8.2-0.3-12.3c0.1-1.4,1.5-2.8,2.3-4.1c0.4,0.2,0.8,0.4,1.2,0.6
	C432.3,176.3,431.3,181.6,430.2,186.9C430.2,186.9,430.2,186.9,430.2,186.9z"/>
</svg>
